<?xml version="1.0" encoding="UTF-8"?>
<!-- Zokastech AEGIS | LinkedIn banner 1500x500 | zokastech.fr -->
<svg xmlns="http://www.w3.org/2000/svg" width="1500" height="500" viewBox="0 0 1500 500" fill="none">
  <title>Zokastech AEGIS — LinkedIn banner</title>
  <defs>
    <linearGradient id="li-bg" x1="0" y1="0" x2="1500" y2="500" gradientUnits="userSpaceOnUse">
      <stop stop-color="#0f172a"/>
      <stop offset="0.55" stop-color="#1a1f3a"/>
      <stop offset="1" stop-color="#0f172a"/>
    </linearGradient>
    <linearGradient id="li-sh" x1="32" y1="4" x2="32" y2="68" gradientUnits="userSpaceOnUse">
      <stop stop-color="#0066ff"/>
      <stop offset="1" stop-color="#00d9ff"/>
    </linearGradient>
  </defs>
  <rect width="1500" height="500" fill="url(#li-bg)"/>
  <g transform="translate(80 90) scale(4.2)">
    <path
      d="M32 4 8 16v24c0 12.5 8.8 24.2 24 30 15.2-5.8 24-17.5 24-30V16L32 4Z"
      stroke="url(#li-sh)"
      stroke-width="4"
      stroke-linejoin="miter"
      fill="none"
    />
    <path
      d="M32 18 20 24.5V40c0 6.2 4.4 12 12 15 7.6-3 12-8.8 12-15V24.5L32 18Z"
      fill="#0066ff"
      fill-opacity="0.2"
      stroke="#00d9ff"
      stroke-width="2"
      stroke-linejoin="miter"
    />
  </g>
  <text x="420" y="175" font-family="Inter, system-ui, sans-serif" font-size="30" font-weight="600" fill="#00d9ff" letter-spacing="0.1em">ZOKASTECH</text>
  <text x="420" y="250" font-family="Inter Tight, Inter, system-ui, sans-serif" font-size="80" font-weight="900" fill="#f8f9fa" letter-spacing="0.08em">AEGIS</text>
  <text x="420" y="315" font-family="Inter, system-ui, sans-serif" font-size="30" font-weight="500" fill="#e5e7eb">Donn&#233;es personnelles : d&#233;tection &amp; anonymisation</text>
  <text x="420" y="365" font-family="Inter, system-ui, sans-serif" font-size="22" fill="#ff6b35" font-weight="600">Innovate &#183; Connect &#183; Grow &#183; zokastech.fr</text>
</svg>
