<?xml version="1.0" encoding="UTF-8"?>
<!-- Zokastech AEGIS | Twitter/X card 1200x675 | zokastech.fr -->
<svg xmlns="http://www.w3.org/2000/svg" width="1200" height="675" viewBox="0 0 1200 675" fill="none">
  <title>Zokastech AEGIS — Twitter card</title>
  <defs>
    <linearGradient id="tw-bg" x1="0" y1="0" x2="1200" y2="675" gradientUnits="userSpaceOnUse">
      <stop stop-color="#1a1f3a"/>
      <stop offset="1" stop-color="#0f172a"/>
    </linearGradient>
    <linearGradient id="tw-sh" x1="32" y1="4" x2="32" y2="68" gradientUnits="userSpaceOnUse">
      <stop stop-color="#0066ff"/>
      <stop offset="1" stop-color="#00d9ff"/>
    </linearGradient>
  </defs>
  <rect width="1200" height="675" fill="url(#tw-bg)"/>
  <rect x="64" y="64" width="1072" height="547" rx="16" fill="none" stroke="#0066ff" stroke-opacity="0.35" stroke-width="2"/>
  <g transform="translate(100 200) scale(5)">
    <path
      d="M32 4 8 16v24c0 12.5 8.8 24.2 24 30 15.2-5.8 24-17.5 24-30V16L32 4Z"
      stroke="url(#tw-sh)"
      stroke-width="4"
      stroke-linejoin="miter"
      fill="none"
    />
    <path
      d="M32 18 20 24.5V40c0 6.2 4.4 12 12 15 7.6-3 12-8.8 12-15V24.5L32 18Z"
      fill="#0066ff"
      fill-opacity="0.2"
      stroke="#00d9ff"
      stroke-width="2"
      stroke-linejoin="miter"
    />
  </g>
  <text x="420" y="285" font-family="Inter, system-ui, sans-serif" font-size="34" font-weight="600" fill="#00d9ff" letter-spacing="0.08em">ZOKASTECH</text>
  <text x="420" y="365" font-family="Inter Tight, Inter, system-ui, sans-serif" font-size="88" font-weight="900" fill="#f8f9fa" letter-spacing="0.06em">AEGIS</text>
  <text x="420" y="430" font-family="Inter, system-ui, sans-serif" font-size="30" font-weight="500" fill="#e5e7eb">PII : d&#233;tection &amp; anonymisation open source</text>
  <text x="420" y="485" font-family="Inter, system-ui, sans-serif" font-size="22" fill="#00d9ff">zokastech.fr</text>
</svg>
